<?xml version="1.0" standalone="no"?>
<!DOCTYPE svg PUBLIC "-//W3C//DTD SVG 20010904//EN"
 "http://www.w3.org/TR/2001/REC-SVG-20010904/DTD/svg10.dtd">
<svg version="1.0" xmlns="http://www.w3.org/2000/svg"
 width="600.000000pt" height="600.000000pt" viewBox="0 0 600.000000 600.000000"
 preserveAspectRatio="xMidYMid meet">
<metadata>
Created by potrace 1.16, written by Peter Selinger 2001-2019
</metadata>
<g transform="translate(0.000000,600.000000) scale(0.100000,-0.100000)"
fill="#000000" stroke="none">
<path d="M2864 5933 c3 -38 8 -188 12 -335 l6 -268 55 0 56 0 -7 173 c-3 94
-9 245 -12 335 l-6 162 -55 0 -55 0 6 -67z m90 40 c2 -10 8 -154 12 -320 l7
-303 -36 0 -35 0 -6 93 c-10 169 -18 526 -11 536 11 18 63 13 69 -6z"/>
<path d="M4213 5388 c-81 -156 -149 -288 -151 -294 -4 -14 80 -67 89 -56 4 4
75 137 159 296 120 227 149 290 139 298 -27 18 -68 38 -78 38 -5 0 -76 -127
-158 -282z m198 247 l29 -16 -24 -47 c-43 -85 -267 -506 -271 -510 -7 -7 -65
19 -65 29 0 5 61 125 136 266 75 142 141 266 146 276 11 21 12 21 49 2z"/>
<path d="M1425 5559 c-16 -11 -36 -23 -43 -28 -10 -5 34 -82 164 -287 97 -153
178 -281 179 -282 2 -2 24 8 50 23 l46 27 -23 38 c-77 127 -334 529 -338 529
-3 0 -18 -9 -35 -20z m203 -270 c89 -141 162 -260 162 -265 0 -5 -13 -17 -29
-27 l-29 -17 -64 103 c-36 56 -113 177 -171 269 l-106 167 32 19 c18 11 35 17
38 13 3 -3 79 -121 167 -262z"/>
<path d="M5252 4446 c-150 -84 -278 -158 -284 -164 -11 -11 28 -92 45 -92 16
0 569 314 574 326 5 15 -36 84 -50 84 -7 0 -135 -69 -285 -154z m306 102 c9
-15 14 -29 12 -31 -3 -2 -128 -73 -279 -157 l-274 -153 -18 24 c-10 13 -19 29
-19 34 0 11 540 316 553 312 5 -1 16 -15 25 -29z"/>
<path d="M350 4420 c-11 -21 -20 -43 -20 -48 0 -5 131 -78 291 -162 274 -144
291 -151 304 -134 17 23 39 73 34 78 -8 7 -577 306 -583 306 -3 0 -15 -18 -26
-40z m355 -150 c126 -67 231 -123 233 -125 4 -3 -26 -65 -32 -65 -6 0 -541
282 -549 290 -5 4 -1 22 7 39 l17 31 47 -24 c26 -13 150 -79 277 -146z"/>
<path d="M5533 3133 l-193 -3 0 -57 0 -56 128 6 c70 4 218 7 330 7 l202 0 0
55 0 55 -137 -2 c-76 -2 -225 -4 -330 -5z m457 -47 l0 -33 -82 -6 c-46 -4
-190 -7 -320 -7 l-238 0 0 34 c0 19 6 37 13 39 6 3 150 6 320 6 l307 1 0 -34z"/>
<path d="M293 2973 l-293 -3 0 -57 0 -56 332 7 c183 4 334 9 335 10 1 1 0 26
-4 54 l-6 52 -36 -2 c-20 -2 -168 -4 -328 -5z m357 -53 l0 -40 -300 -2 c-165
-1 -308 -2 -317 -2 -14 -1 -19 8 -21 36 l-3 37 148 4 c81 1 226 4 321 5 l172
2 0 -40z"/>
<path d="M5065 1904 c-15 -25 -25 -47 -23 -48 16 -13 572 -326 578 -326 9 0
56 87 50 93 -8 7 -569 327 -574 327 -2 0 -16 -21 -31 -46z m325 -139 c140 -81
256 -148 258 -150 4 -4 -27 -65 -32 -65 -3 0 -546 308 -553 314 -1 1 7 16 17
34 16 26 24 31 38 23 9 -5 132 -75 272 -156z"/>
<path d="M925 1790 c-33 -21 -160 -104 -283 -184 l-223 -146 22 -38 c12 -20
25 -41 29 -45 6 -6 526 320 563 353 5 4 -4 28 -20 53 l-29 46 -59 -39z m78
-20 l18 -29 -98 -64 c-367 -237 -433 -279 -440 -277 -4 1 -16 14 -25 28 l-17
27 262 172 c144 94 267 172 272 172 6 1 19 -12 28 -29z"/>
<path d="M4228 1017 c-21 -12 -38 -25 -38 -28 0 -7 309 -571 319 -581 9 -11
93 42 89 56 -7 30 -314 576 -323 575 -5 0 -27 -10 -47 -22z m201 -274 l152
-278 -22 -17 c-11 -10 -27 -18 -34 -18 -9 0 -315 539 -315 556 0 4 52 33 61
34 3 0 74 -125 158 -277z"/>
<path d="M1702 670 c-89 -159 -162 -292 -162 -295 0 -6 76 -45 88 -45 9 0 332
568 332 583 0 7 -74 47 -87 47 -5 0 -81 -130 -171 -290z m217 253 l22 -18
-152 -270 c-83 -148 -154 -274 -159 -278 -4 -5 -22 -1 -39 8 l-32 16 18 32
c11 18 81 143 157 280 76 136 144 247 151 247 7 0 22 -8 34 -17z"/>
<path d="M3038 663 l-28 -4 0 -178 c0 -98 3 -246 7 -329 l6 -152 51 0 51 0 -2
183 c-2 100 -6 251 -9 335 -7 169 0 156 -76 145z m62 -136 c0 -68 3 -212 7
-320 l6 -197 -41 0 -42 0 0 168 c0 93 -3 237 -7 320 l-6 152 41 0 42 0 0 -123z"/>
</g>
</svg>
